PathFileType	3	(X/Y/Z)	C:\Users\koon_\Desktop\
DataRate	CameraRate	NumFrames	NumMarkers	Units	OrigDataRate	OrigDataStartFrame	OrigNumFrames
100.0	100.0	10	27	mm	100.0	442	3531	
Frame#	Time	get:LFHD			get:RFHD			get:LBHD			get:RBHD			get:C7			get:T10			get:CLAV			get:STRN			get:RBAK			get:LSHO			get:LUPA			get:LELB			get:LFRA			get:LWRA			get:LWRB			get:LFIN			get:RSHO			get:RUPA			get:RELB			get:RFRA			get:RWRA			get:RWRB			get:RFIN			get:LASI			get:RASI			get:LPSI			get:RPSI			
		X1	Y1	Z1	X2	Y2	Z2	X3	Y3	Z3	X4	Y4	Z4	X5	Y5	Z5	X6	Y6	Z6	X7	Y7	Z7	X8	Y8	Z8	X9	Y9	Z9	X10	Y10	Z10	X11	Y11	Z11	X12	Y12	Z12	X13	Y13	Z13	X14	Y14	Z14	X15	Y15	Z15	X16	Y16	Z16	X17	Y17	Z17	X18	Y18	Z18	X19	Y19	Z19	X20	Y20	Z20	X21	Y21	Z21	X22	Y22	Z22	X23	Y23	Z23	X24	Y24	Z24	X25	Y25	Z25	X26	Y26	Z26	X27	Y27	Z27	
442	4.41	38.847595	1533.2592	-24.662708	-106.40509	1531.835	-48.013004	60.193176	1530.3729	-161.34952	-90.270187	1522.5109	-182.34424	-13.249496	1323.5295	-218.87627	-4.7172675	1110.4834	-251.30954	-11.984432	1237.2097	-28.168766	-13.680364	1082.8352	13.966476	-103.8298	1249.7251	-244.5853	152.6452	1324.5615	-145.56964	194.68163	1108.7501	-104.3464	212.05847	995.64771	-172.66058	201.71683	939.26898	-92.472321	155.55627	782.17944	-53.767403	216.33603	770.3717	-96.52095	189.69164	700.5426	-60.211327	-155.23808	1331.0933	-125.76582	-223.60655	1207.2029	-112.04092	-264.56461	995.27692	-162.10406	-237.22044	872.01703	-60.105675	-219.40305	775.49872	-38.058876	-277.57248	778.5368	-84.144379	-238.08067	700.48486	-42.846848	121.93419	889.50458	-49.694683	-169.08365	911.88129	-63.947998	39.776688	927.78229	-236.78868	-47.549793	929.03394	-245.62811
443	4.42	38.991589	1533.1371	-24.521704	-106.20078	1531.6586	-48.223576	60.489395	1530.5566	-161.22176	-90.006691	1522.6742	-182.22165	-13.247149	1323.4581	-218.94101	-5.0228143	1110.4547	-251.23212	-11.883438	1237.2404	-28.232725	-13.634583	1082.908	13.883165	-104.08489	1249.8978	-244.27711	152.64485	1324.6123	-145.69644	195.8268	1109.1766	-103.78623	214.6201	995.88177	-171.92892	203.98183	939.65649	-91.959358	157.65909	782.39166	-53.403519	219.09981	770.73077	-95.0205	191.52818	700.91199	-59.500225	-154.95395	1331.5449	-125.27605	-223.73717	1208.0393	-111.48605	-266.07532	996.31067	-161.89288	-238.41068	872.85486	-60.35825	-220.7079	776.64758	-38.452553	-278.96234	779.40332	-85.244759	-239.25417	701.26373	-43.287216	122.09801	889.42493	-49.8661	-168.92523	911.89166	-63.822678	39.803352	927.75208	-236.77115	-47.534325	929.04865	-245.56711
444	4.43	39.165764	1532.9692	-24.433327	-105.90285	1531.8386	-49.425476	60.794735	1530.7302	-161.08824	-89.631134	1522.911	-182.34235	-13.236272	1323.4141	-219.02583	-5.3431063	1110.3647	-251.11601	-11.723653	1237.2745	-28.23896	-13.55469	1082.9746	13.901082	-104.3662	1250.1844	-244.13034	152.67462	1324.7135	-145.86189	196.90007	1109.6371	-102.98134	217.34872	996.19989	-171.03172	206.19063	940.10956	-91.088257	159.77866	782.63812	-52.956856	221.93547	771.11945	-93.585884	193.39864	701.20001	-58.602787	-154.68172	1331.9998	-124.97901	-223.86072	1208.8486	-110.89865	-267.44736	997.20129	-161.75807	-239.50172	873.52686	-60.665764	-221.77776	777.41663	-39.024071	-280.112	780.10809	-85.751244	-240.26367	701.97296	-43.722878	122.25245	889.40454	-49.974777	-168.71439	911.85223	-63.626736	39.771343	927.72656	-236.8399	-47.528374	929.07721	-245.49077
445	4.44	39.33762	1532.855	-24.307194	-105.66608	1531.7279	-49.3554	61.084969	1530.915	-160.99867	-89.330444	1523.1876	-182.46352	-13.232891	1323.343	-219.12018	-5.6330667	1110.325	-251.07011	-11.569146	1237.3254	-28.264238	-13.429272	1083.0327	13.937813	-104.62507	1250.3577	-243.94627	152.68544	1324.8309	-146.01422	197.79031	1110.1682	-102.26488	219.95428	996.62494	-170.05669	208.23335	940.56348	-90.099648	161.88301	782.94482	-52.412544	224.74846	771.58752	-92.014954	195.50685	701.37152	-57.605385	-154.44296	1332.4161	-124.71481	-224.03535	1209.7668	-110.29987	-268.66745	998.07965	-161.73012	-240.4859	874.03101	-61.194042	-222.80515	777.97791	-39.523693	-281.06424	780.71295	-86.660797	-241.17239	702.54999	-44.281761	122.41534	889.37695	-50.146454	-168.52197	911.86572	-63.343784	39.661388	927.72058	-236.88187	-47.663567	929.08899	-245.40939
446	4.45	39.561455	1532.6978	-24.242985	-105.46828	1531.712	-49.271061	61.384468	1531.0624	-160.86537	-89.006264	1523.3706	-182.32822	-13.26023	1323.2478	-219.18883	-5.8926649	1110.2467	-250.96806	-11.365334	1237.4059	-28.414497	-13.319244	1083.1271	14.022056	-104.80031	1250.6215	-243.92488	152.76086	1325.0144	-146.18629	198.48613	1110.7046	-101.75634	222.49741	997.16449	-168.87144	210.08646	941.13721	-88.853912	163.8831	783.32324	-51.89518	227.39597	772.21112	-90.487885	197.73352	701.7074	-56.558743	-154.1909	1332.7756	-124.46498	-224.26485	1210.3789	-109.93622	-269.58829	998.75134	-161.78455	-241.30931	874.52136	-61.61005	-223.72165	778.40973	-39.936031	-281.83328	781.09552	-87.619041	-242.02847	703.0119	-45.042	122.59095	889.37036	-50.31208	-168.34862	911.836	-63.122608	39.487022	927.73041	-236.95149	-47.823727	929.04523	-245.33521
447	4.46	39.851467	1532.5632	-24.156666	-105.06464	1531.2142	-49.531151	61.747162	1531.2024	-160.80728	-88.659042	1523.624	-182.36606	-13.235177	1323.1486	-219.24577	-6.0763679	1110.2229	-250.93433	-11.205317	1237.3939	-28.32563	-13.140395	1083.2122	14.007814	-104.93938	1250.7361	-243.83611	152.79524	1325.2273	-146.32832	198.99422	1111.1882	-101.39392	224.81818	997.78351	-167.71689	211.77167	941.76227	-87.748718	165.86134	783.79834	-51.306156	229.94298	772.94745	-88.988785	199.94551	702.25781	-55.662865	-154.00394	1333.016	-124.24233	-224.42194	1210.8079	-109.64597	-270.30307	999.35565	-162.08736	-242.08545	874.85498	-62.257797	-224.5435	778.74292	-40.697285	-282.48331	781.44788	-88.621727	-242.64403	703.29663	-45.799019	122.77766	889.35474	-50.488075	-168.25285	911.81958	-62.871689	39.257301	927.70514	-236.95314	-48.094051	929.0199	-245.229
448	4.47	40.148514	1532.4281	-24.07268	-104.75466	1531.2186	-49.431091	62.115856	1531.3223	-160.71298	-88.313873	1523.8416	-182.35971	-13.228518	1323.0948	-219.37817	-6.1609564	1110.2086	-250.85905	-10.997877	1237.448	-28.380667	-12.961372	1083.2749	14.037752	-105.03338	1250.8281	-243.75943	152.8492	1325.5056	-146.42976	199.5128	1111.7393	-101.16884	226.92557	998.51086	-166.64085	213.40341	942.46802	-86.836601	167.68042	784.37549	-50.767586	232.38857	773.83765	-87.547211	202.03227	702.98773	-54.635426	-153.81212	1333.1833	-124.02159	-224.49582	1211.0955	-109.45188	-270.71799	999.78314	-162.29701	-242.71864	875.06696	-62.783554	-225.16536	778.93323	-41.353703	-282.9086	781.64978	-89.52697	-243.18256	703.45013	-46.775524	122.84399	889.32928	-50.686901	-168.16425	911.78735	-62.608639	38.976955	927.72681	-237.09991	-48.405441	928.96783	-245.08249
449	4.48	40.460758	1532.2993	-24.044891	-104.42487	1531.233	-49.432407	62.479607	1531.3995	-160.61913	-87.941383	1524.0326	-182.3896	-13.207116	1323.0751	-219.33383	-6.2003303	1110.2516	-250.85727	-10.813039	1237.4824	-28.450932	-12.807018	1083.3135	14.011943	-105.11662	1250.8662	-243.66547	152.83759	1325.8307	-146.44646	200.03607	1112.3459	-100.99545	228.90207	999.30743	-165.74625	214.99364	943.3432	-85.997414	169.43872	784.97479	-50.259106	234.57117	774.76111	-86.254189	203.93207	703.8009	-53.651447	-153.68661	1333.2789	-123.86886	-224.51048	1211.1868	-109.29234	-270.90631	1000.031	-162.58803	-243.32756	875.09003	-63.426964	-225.82089	778.9541	-42.255264	-283.27798	781.72913	-90.717415	-243.52132	703.41888	-47.823082	122.86658	889.33154	-50.890526	-168.15025	911.74402	-62.377953	38.638672	927.70093	-237.09673	-48.716026	928.9436	-244.91022
450	4.49	40.746002	1532.1781	-23.9785	-104.05548	1531.2483	-49.350212	62.834366	1531.4528	-160.59067	-87.573883	1524.2197	-182.34993	-13.177211	1323.105	-219.41866	-6.1837478	1110.3405	-250.78198	-10.647305	1237.4913	-28.401373	-12.680449	1083.3712	14.012978	-105.08482	1250.8281	-243.57018	152.81477	1326.1917	-146.47452	200.66725	1113.02	-100.86938	230.72633	1000.0842	-165.15532	216.40527	944.12109	-85.391434	171.05707	785.60162	-49.810085	236.655	775.72424	-84.973747	205.70107	704.5899	-52.776222	-153.59482	1333.3096	-123.76171	-224.40012	1211.1749	-109.24869	-270.94083	1000.0924	-162.91354	-243.74294	874.9505	-64.019905	-226.26271	778.74054	-42.782753	-283.42142	781.60358	-91.729729	-243.63554	703.22742	-48.953468	122.87063	889.35614	-51.071091	-168.20459	911.71552	-62.029182	38.301437	927.67847	-237.06581	-49.072319	928.96313	-244.83406
451	4.5	41.052654	1532.0532	-23.918409	-103.78786	1531.3042	-49.417789	63.197231	1531.4396	-160.52867	-87.201042	1524.3696	-182.34956	-13.132792	1323.0863	-219.34802	-6.1340632	1110.4388	-250.68361	-10.522653	1237.5409	-28.474247	-12.495538	1083.3986	14.084946	-105.05777	1250.7748	-243.48563	152.75215	1326.621	-146.45822	201.27608	1113.7513	-100.59013	232.35252	1000.8405	-164.72684	217.66115	944.97314	-84.842827	172.48431	786.20679	-49.502659	238.54718	776.61371	-83.914604	207.40633	705.42932	-51.909603	-153.52185	1333.2615	-123.6702	-224.29558	1211.0341	-109.23407	-270.82346	1000.0355	-163.25275	-243.96005	874.67505	-64.615227	-226.48605	778.39551	-43.552246	-283.38629	781.37701	-92.936539	-243.58302	702.85571	-50.219189	122.87115	889.36798	-51.163708	-168.22356	911.72241	-61.691532	37.97245	927.73309	-237.13016	-49.378105	928.9917	-244.74321
